<svg width="504" height="210" viewBox="0 0 504 210" fill="none" xmlns="http://www.w3.org/2000/svg">
<path d="M168.869 158.246L159.407 158.246L159.407 166.5L170.287 166.5L170.287 167.945L157.698 167.945L157.698 147.714L170.217 147.714L170.217 149.173L159.407 149.173L159.407 156.801L168.869 156.801L168.869 158.246ZM175.094 152.911L175.15 155.481C175.715 154.555 176.419 153.851 177.262 153.369C178.105 152.878 179.036 152.633 180.055 152.633C181.666 152.633 182.866 153.087 183.653 153.994C184.441 154.902 184.839 156.264 184.848 158.079L184.848 167.945L183.195 167.945L183.195 158.066C183.185 156.722 182.898 155.722 182.333 155.064C181.777 154.407 180.884 154.078 179.652 154.078C178.623 154.078 177.711 154.402 176.914 155.05C176.127 155.69 175.543 156.556 175.164 157.649L175.164 167.945L173.51 167.945L173.51 152.911L175.094 152.911ZM198.646 167.945C198.479 167.472 198.372 166.773 198.326 165.847C197.742 166.606 196.997 167.194 196.089 167.611C195.19 168.019 194.236 168.223 193.227 168.223C191.782 168.223 190.61 167.82 189.711 167.014C188.822 166.208 188.377 165.189 188.377 163.957C188.377 162.493 188.984 161.335 190.198 160.483C191.42 159.631 193.12 159.205 195.297 159.205L198.312 159.205L198.312 157.496C198.312 156.421 197.979 155.578 197.312 154.967C196.654 154.346 195.691 154.036 194.422 154.036C193.264 154.036 192.305 154.333 191.545 154.925C190.786 155.518 190.406 156.231 190.406 157.065L188.739 157.051C188.739 155.856 189.294 154.823 190.406 153.953C191.518 153.073 192.884 152.633 194.505 152.633C196.182 152.633 197.502 153.054 198.465 153.897C199.438 154.731 199.938 155.898 199.966 157.399L199.966 164.513C199.966 165.967 200.118 167.055 200.424 167.778L200.424 167.945L198.646 167.945ZM193.421 166.75C194.533 166.75 195.524 166.481 196.395 165.944C197.275 165.407 197.914 164.689 198.312 163.79L198.312 160.483L195.339 160.483C193.681 160.502 192.384 160.807 191.448 161.4C190.513 161.984 190.045 162.79 190.045 163.818C190.045 164.661 190.355 165.36 190.976 165.916C191.606 166.472 192.421 166.75 193.421 166.75ZM216.514 160.58C216.514 162.924 215.995 164.786 214.958 166.166C213.92 167.537 212.526 168.223 210.776 168.223C208.682 168.223 207.098 167.444 206.024 165.888L205.954 167.945L204.398 167.945L204.398 146.603L206.051 146.603L206.051 155.092C207.107 153.453 208.673 152.633 210.748 152.633C212.526 152.633 213.93 153.314 214.958 154.675C215.995 156.028 216.514 157.913 216.514 160.33L216.514 160.58ZM214.847 160.289C214.847 158.306 214.462 156.778 213.693 155.703C212.925 154.62 211.841 154.078 210.442 154.078C209.377 154.078 208.474 154.342 207.733 154.87C206.992 155.389 206.431 156.153 206.051 157.162L206.051 163.943C206.885 165.833 208.358 166.777 210.47 166.777C211.841 166.777 212.911 166.236 213.679 165.152C214.458 164.068 214.847 162.447 214.847 160.289ZM222.058 167.945L220.391 167.945L220.391 146.603L222.058 146.603L222.058 167.945ZM228.449 167.945L226.782 167.945L226.782 152.911L228.449 152.911L228.449 167.945ZM226.49 148.562C226.49 148.247 226.592 147.983 226.796 147.77C227 147.547 227.278 147.436 227.63 147.436C227.982 147.436 228.26 147.547 228.463 147.77C228.676 147.983 228.783 148.247 228.783 148.562C228.783 148.877 228.676 149.141 228.463 149.354C228.26 149.567 227.982 149.673 227.63 149.673C227.278 149.673 227 149.567 226.796 149.354C226.592 149.141 226.49 148.877 226.49 148.562ZM234.563 152.911L234.619 155.481C235.184 154.555 235.888 153.851 236.731 153.369C237.574 152.878 238.505 152.633 239.523 152.633C241.135 152.633 242.335 153.087 243.122 153.994C243.91 154.902 244.308 156.264 244.317 158.079L244.317 167.945L242.664 167.945L242.664 158.066C242.654 156.722 242.367 155.722 241.802 155.064C241.246 154.407 240.353 154.078 239.121 154.078C238.092 154.078 237.18 154.402 236.383 155.05C235.596 155.69 235.012 156.556 234.633 157.649L234.633 167.945L232.979 167.945L232.979 152.911L234.563 152.911ZM247.958 160.289C247.958 157.936 248.476 156.074 249.514 154.703C250.56 153.323 251.978 152.633 253.765 152.633C255.813 152.633 257.369 153.448 258.434 155.078L258.517 152.911L260.074 152.911L260.074 167.639C260.074 169.575 259.532 171.108 258.448 172.238C257.364 173.368 255.896 173.933 254.043 173.933C252.997 173.933 251.996 173.697 251.042 173.225C250.097 172.761 249.352 172.141 248.805 171.363L249.736 170.362C250.912 171.807 252.311 172.53 253.932 172.53C255.322 172.53 256.405 172.118 257.184 171.293C257.962 170.478 258.365 169.343 258.392 167.889L258.392 165.999C257.327 167.481 255.776 168.223 253.738 168.223C251.996 168.223 250.597 167.528 249.541 166.138C248.485 164.749 247.958 162.873 247.958 160.511L247.958 160.289ZM249.639 160.58C249.639 162.498 250.023 164.012 250.792 165.124C251.561 166.226 252.645 166.777 254.043 166.777C256.09 166.777 257.54 165.86 258.392 164.026L258.392 157.037C258.003 156.074 257.443 155.342 256.711 154.842C255.979 154.333 255.099 154.078 254.071 154.078C252.672 154.078 251.584 154.629 250.806 155.731C250.028 156.824 249.639 158.441 249.639 160.58ZM283.417 160.58C283.417 162.924 282.898 164.786 281.86 166.166C280.823 167.537 279.433 168.223 277.692 168.223C275.636 168.223 274.061 167.5 272.968 166.055L272.968 173.725L271.314 173.725L271.314 152.911L272.857 152.911L272.94 155.037C274.024 153.434 275.594 152.633 277.65 152.633C279.447 152.633 280.855 153.314 281.874 154.675C282.902 156.037 283.417 157.927 283.417 160.344L283.417 160.58ZM281.749 160.289C281.749 158.371 281.356 156.857 280.568 155.745C279.781 154.634 278.683 154.078 277.275 154.078C276.256 154.078 275.381 154.323 274.649 154.814C273.917 155.305 273.357 156.018 272.968 156.954L272.968 164.165C273.366 165.027 273.936 165.684 274.677 166.138C275.418 166.592 276.293 166.819 277.303 166.819C278.702 166.819 279.79 166.263 280.568 165.152C281.356 164.031 281.749 162.41 281.749 160.289ZM286.195 160.205C286.195 158.76 286.473 157.459 287.029 156.301C287.594 155.143 288.386 154.245 289.405 153.605C290.433 152.957 291.596 152.633 292.893 152.633C294.894 152.633 296.515 153.337 297.756 154.745C298.997 156.143 299.618 158.001 299.618 160.316L299.618 160.664C299.618 162.118 299.335 163.429 298.77 164.596C298.214 165.754 297.427 166.648 296.408 167.278C295.389 167.908 294.227 168.223 292.92 168.223C290.929 168.223 289.308 167.523 288.057 166.124C286.816 164.716 286.195 162.855 286.195 160.539L286.195 160.205ZM287.863 160.664C287.863 162.461 288.326 163.938 289.252 165.096C290.188 166.245 291.411 166.819 292.92 166.819C294.421 166.819 295.635 166.245 296.561 165.096C297.496 163.938 297.964 162.415 297.964 160.525L297.964 160.205C297.964 159.057 297.751 158.005 297.325 157.051C296.899 156.097 296.302 155.361 295.533 154.842C294.764 154.314 293.884 154.05 292.893 154.05C291.411 154.05 290.202 154.634 289.266 155.801C288.331 156.959 287.863 158.478 287.863 160.358L287.863 160.664ZM310.011 154.328C309.659 154.263 309.284 154.231 308.885 154.231C307.848 154.231 306.968 154.522 306.245 155.106C305.532 155.68 305.023 156.519 304.717 157.621L304.717 167.945L303.064 167.945L303.064 152.911L304.689 152.911L304.717 155.301C305.597 153.522 307.01 152.633 308.955 152.633C309.418 152.633 309.784 152.693 310.053 152.813L310.011 154.328ZM315.93 149.062L315.93 152.911L319.042 152.911L319.042 154.272L315.93 154.272L315.93 164.29C315.93 165.124 316.078 165.745 316.375 166.152C316.68 166.56 317.185 166.764 317.889 166.764C318.167 166.764 318.616 166.717 319.237 166.625L319.306 167.986C318.871 168.144 318.278 168.223 317.528 168.223C316.388 168.223 315.559 167.894 315.041 167.236C314.522 166.569 314.263 165.592 314.263 164.304L314.263 154.272L311.498 154.272L311.498 152.911L314.263 152.911L314.263 149.062L315.93 149.062ZM331.978 167.945C331.812 167.472 331.705 166.773 331.659 165.847C331.075 166.606 330.329 167.194 329.422 167.611C328.523 168.019 327.569 168.223 326.559 168.223C325.114 168.223 323.943 167.82 323.044 167.014C322.155 166.208 321.71 165.189 321.71 163.957C321.71 162.493 322.317 161.335 323.53 160.483C324.753 159.631 326.453 159.205 328.63 159.205L331.645 159.205L331.645 157.496C331.645 156.421 331.311 155.578 330.644 154.967C329.987 154.346 329.023 154.036 327.754 154.036C326.596 154.036 325.638 154.333 324.878 154.925C324.119 155.518 323.739 156.231 323.739 157.065L322.071 157.051C322.071 155.856 322.627 154.823 323.739 153.953C324.85 153.073 326.217 152.633 327.838 152.633C329.514 152.633 330.834 153.054 331.798 153.897C332.77 154.731 333.27 155.898 333.298 157.399L333.298 164.513C333.298 165.967 333.451 167.055 333.757 167.778L333.757 167.945L331.978 167.945ZM326.754 166.75C327.865 166.75 328.857 166.481 329.727 165.944C330.607 165.407 331.246 164.689 331.645 163.79L331.645 160.483L328.671 160.483C327.013 160.502 325.716 160.807 324.781 161.4C323.845 161.984 323.377 162.79 323.377 163.818C323.377 164.661 323.688 165.36 324.308 165.916C324.938 166.472 325.753 166.75 326.754 166.75ZM349.847 160.58C349.847 162.924 349.328 164.786 348.291 166.166C347.253 167.537 345.859 168.223 344.108 168.223C342.015 168.223 340.431 167.444 339.356 165.888L339.287 167.945L337.731 167.945L337.731 146.603L339.384 146.603L339.384 155.092C340.44 153.453 342.006 152.633 344.08 152.633C345.859 152.633 347.262 153.314 348.291 154.675C349.328 156.028 349.847 157.913 349.847 160.33L349.847 160.58ZM348.179 160.289C348.179 158.306 347.795 156.778 347.026 155.703C346.257 154.62 345.173 154.078 343.775 154.078C342.71 154.078 341.806 154.342 341.065 154.87C340.324 155.389 339.764 156.153 339.384 157.162L339.384 163.943C340.218 165.833 341.691 166.777 343.803 166.777C345.173 166.777 346.243 166.236 347.012 165.152C347.79 164.068 348.179 162.447 348.179 160.289ZM355.391 167.945L353.723 167.945L353.723 152.911L355.391 152.911L355.391 167.945ZM353.432 148.562C353.432 148.247 353.533 147.983 353.737 147.77C353.941 147.547 354.219 147.436 354.571 147.436C354.923 147.436 355.201 147.547 355.405 147.77C355.618 147.983 355.724 148.247 355.724 148.562C355.724 148.877 355.618 149.141 355.405 149.354C355.201 149.567 354.923 149.673 354.571 149.673C354.219 149.673 353.941 149.567 353.737 149.354C353.533 149.141 353.432 148.877 353.432 148.562ZM361.782 167.945L360.115 167.945L360.115 146.603L361.782 146.603L361.782 167.945ZM368.174 167.945L366.506 167.945L366.506 152.911L368.174 152.911L368.174 167.945ZM366.215 148.562C366.215 148.247 366.316 147.983 366.52 147.77C366.724 147.547 367.002 147.436 367.354 147.436C367.706 147.436 367.984 147.547 368.188 147.77C368.401 147.983 368.507 148.247 368.507 148.562C368.507 148.877 368.401 149.141 368.188 149.354C367.984 149.567 367.706 149.673 367.354 149.673C367.002 149.673 366.724 149.567 366.52 149.354C366.316 149.141 366.215 148.877 366.215 148.562ZM375.288 149.062L375.288 152.911L378.4 152.911L378.4 154.272L375.288 154.272L375.288 164.29C375.288 165.124 375.436 165.745 375.732 166.152C376.038 166.56 376.543 166.764 377.247 166.764C377.525 166.764 377.974 166.717 378.595 166.625L378.664 167.986C378.229 168.144 377.636 168.223 376.886 168.223C375.746 168.223 374.917 167.894 374.398 167.236C373.88 166.569 373.62 165.592 373.62 164.304L373.62 154.272L370.855 154.272L370.855 152.911L373.62 152.911L373.62 149.062L375.288 149.062ZM386.612 165.555L391.003 152.911L392.795 152.911L386.376 170.501L386.042 171.279C385.218 173.104 383.944 174.017 382.221 174.017C381.823 174.017 381.397 173.952 380.943 173.822L380.929 172.446L381.79 172.53C382.606 172.53 383.263 172.326 383.763 171.918C384.273 171.52 384.704 170.83 385.056 169.848L385.792 167.82L380.123 152.911L381.943 152.911L386.612 165.555ZM399.959 160.205C399.959 158.76 400.237 157.459 400.793 156.301C401.358 155.143 402.15 154.245 403.169 153.605C404.197 152.957 405.359 152.633 406.656 152.633C408.657 152.633 410.278 153.337 411.519 154.745C412.761 156.143 413.381 158.001 413.381 160.316L413.381 160.664C413.381 162.118 413.099 163.429 412.534 164.596C411.978 165.754 411.191 166.648 410.172 167.278C409.153 167.908 407.99 168.223 406.684 168.223C404.692 168.223 403.071 167.523 401.821 166.124C400.58 164.716 399.959 162.855 399.959 160.539L399.959 160.205ZM401.626 160.664C401.626 162.461 402.09 163.938 403.016 165.096C403.951 166.245 405.174 166.819 406.684 166.819C408.185 166.819 409.398 166.245 410.324 165.096C411.26 163.938 411.728 162.415 411.728 160.525L411.728 160.205C411.728 159.057 411.515 158.005 411.089 157.051C410.663 156.097 410.065 155.361 409.296 154.842C408.527 154.314 407.647 154.05 406.656 154.05C405.174 154.05 403.965 154.634 403.03 155.801C402.094 156.959 401.626 158.478 401.626 160.358L401.626 160.664ZM418.022 167.945L418.022 154.272L415.535 154.272L415.535 152.911L418.022 152.911L418.022 151.09C418.022 149.553 418.411 148.372 419.189 147.547C419.977 146.723 421.07 146.311 422.468 146.311C423.098 146.311 423.686 146.389 424.233 146.547L424.108 147.936C423.645 147.825 423.14 147.77 422.593 147.77C421.676 147.77 420.963 148.057 420.454 148.631C419.944 149.196 419.689 150.002 419.689 151.049L419.689 152.911L423.274 152.911L423.274 154.272L419.689 154.272L419.689 167.945L418.022 167.945ZM431.077 160.289C431.077 157.954 431.596 156.097 432.634 154.717C433.68 153.328 435.098 152.633 436.885 152.633C438.914 152.633 440.461 153.434 441.526 155.037L441.526 146.603L443.18 146.603L443.18 167.945L441.623 167.945L441.554 165.944C440.489 167.463 438.923 168.223 436.858 168.223C435.125 168.223 433.727 167.528 432.661 166.138C431.605 164.74 431.077 162.855 431.077 160.483L431.077 160.289ZM432.759 160.58C432.759 162.498 433.143 164.012 433.912 165.124C434.681 166.226 435.765 166.777 437.163 166.777C439.21 166.777 440.665 165.874 441.526 164.068L441.526 157.01C440.665 155.055 439.22 154.078 437.191 154.078C435.792 154.078 434.704 154.629 433.926 155.731C433.148 156.824 432.759 158.441 432.759 160.58ZM457.046 167.945C456.88 167.472 456.773 166.773 456.727 165.847C456.143 166.606 455.398 167.194 454.49 167.611C453.591 168.019 452.637 168.223 451.628 168.223C450.182 168.223 449.011 167.82 448.112 167.014C447.223 166.208 446.778 165.189 446.778 163.957C446.778 162.493 447.385 161.335 448.599 160.483C449.821 159.631 451.521 159.205 453.698 159.205L456.713 159.205L456.713 157.496C456.713 156.421 456.379 155.578 455.713 154.967C455.055 154.346 454.092 154.036 452.822 154.036C451.665 154.036 450.706 154.333 449.946 154.925C449.187 155.518 448.807 156.231 448.807 157.065L447.14 157.051C447.14 155.856 447.695 154.823 448.807 153.953C449.918 153.073 451.285 152.633 452.906 152.633C454.582 152.633 455.902 153.054 456.866 153.897C457.838 154.731 458.339 155.898 458.366 157.399L458.366 164.513C458.366 165.967 458.519 167.055 458.825 167.778L458.825 167.945L457.046 167.945ZM451.822 166.75C452.934 166.75 453.925 166.481 454.796 165.944C455.676 165.407 456.315 164.689 456.713 163.79L456.713 160.483L453.74 160.483C452.081 160.502 450.785 160.807 449.849 161.4C448.913 161.984 448.446 162.79 448.446 163.818C448.446 164.661 448.756 165.36 449.377 165.916C450.006 166.472 450.822 166.75 451.822 166.75ZM465.397 149.062L465.397 152.911L468.509 152.911L468.509 154.272L465.397 154.272L465.397 164.29C465.397 165.124 465.545 165.745 465.842 166.152C466.147 166.56 466.652 166.764 467.356 166.764C467.634 166.764 468.083 166.717 468.704 166.625L468.773 167.986C468.338 168.144 467.745 168.223 466.995 168.223C465.856 168.223 465.027 167.894 464.508 167.236C463.989 166.569 463.73 165.592 463.73 164.304L463.73 154.272L460.965 154.272L460.965 152.911L463.73 152.911L463.73 149.062L465.397 149.062ZM481.445 167.945C481.279 167.472 481.172 166.773 481.126 165.847C480.542 166.606 479.797 167.194 478.889 167.611C477.99 168.019 477.036 168.223 476.026 168.223C474.581 168.223 473.41 167.82 472.511 167.014C471.622 166.208 471.177 165.189 471.177 163.957C471.177 162.493 471.784 161.335 472.997 160.483C474.22 159.631 475.92 159.205 478.097 159.205L481.112 159.205L481.112 157.496C481.112 156.421 480.778 155.578 480.112 154.967C479.454 154.346 478.49 154.036 477.221 154.036C476.064 154.036 475.105 154.333 474.345 154.925C473.586 155.518 473.206 156.231 473.206 157.065L471.539 157.051C471.539 155.856 472.094 154.823 473.206 153.953C474.317 153.073 475.684 152.633 477.305 152.633C478.981 152.633 480.301 153.054 481.265 153.897C482.237 154.731 482.738 155.898 482.765 157.399L482.765 164.513C482.765 165.967 482.918 167.055 483.224 167.778L483.224 167.945L481.445 167.945ZM476.221 166.75C477.333 166.75 478.324 166.481 479.194 165.944C480.074 165.407 480.714 164.689 481.112 163.79L481.112 160.483L478.138 160.483C476.48 160.502 475.184 160.807 474.248 161.4C473.312 161.984 472.845 162.79 472.845 163.818C472.845 164.661 473.155 165.36 473.776 165.916C474.405 166.472 475.221 166.75 476.221 166.75ZM159.171 196.945L157.504 196.945L157.504 181.911L159.171 181.911L159.171 196.945ZM157.212 177.562C157.212 177.247 157.314 176.983 157.517 176.77C157.721 176.547 157.999 176.436 158.351 176.436C158.703 176.436 158.981 176.547 159.185 176.77C159.398 176.983 159.504 177.247 159.504 177.562C159.504 177.877 159.398 178.141 159.185 178.354C158.981 178.567 158.703 178.673 158.351 178.673C157.999 178.673 157.721 178.567 157.517 178.354C157.314 178.141 157.212 177.877 157.212 177.562ZM165.285 181.911L165.34 184.481C165.905 183.555 166.609 182.851 167.452 182.369C168.295 181.878 169.226 181.633 170.245 181.633C171.857 181.633 173.056 182.087 173.844 182.994C174.631 183.902 175.029 185.264 175.039 187.079L175.039 196.945L173.385 196.945L173.385 187.066C173.376 185.722 173.089 184.722 172.524 184.064C171.968 183.407 171.074 183.078 169.842 183.078C168.814 183.078 167.901 183.402 167.105 184.05C166.317 184.69 165.734 185.556 165.354 186.649L165.354 196.945L163.701 196.945L163.701 181.911L165.285 181.911ZM188.85 178.062L188.85 181.911L191.962 181.911L191.962 183.272L188.85 183.272L188.85 193.29C188.85 194.124 188.998 194.745 189.294 195.152C189.6 195.56 190.105 195.764 190.809 195.764C191.087 195.764 191.536 195.717 192.157 195.625L192.226 196.986C191.791 197.144 191.198 197.223 190.448 197.223C189.308 197.223 188.479 196.894 187.961 196.236C187.442 195.569 187.182 194.592 187.182 193.304L187.182 183.272L184.417 183.272L184.417 181.911L187.182 181.911L187.182 178.062L188.85 178.062ZM197.062 184.453C197.608 183.555 198.307 182.86 199.16 182.369C200.012 181.878 200.943 181.633 201.952 181.633C203.564 181.633 204.764 182.087 205.551 182.994C206.339 183.902 206.737 185.264 206.746 187.079L206.746 196.945L205.093 196.945L205.093 187.066C205.083 185.722 204.796 184.722 204.231 184.064C203.675 183.407 202.781 183.078 201.549 183.078C200.521 183.078 199.609 183.402 198.812 184.05C198.025 184.69 197.441 185.556 197.062 186.649L197.062 196.945L195.408 196.945L195.408 175.603L197.062 175.603L197.062 184.453ZM216.847 197.223C215.569 197.223 214.411 196.908 213.374 196.278C212.346 195.648 211.544 194.772 210.97 193.652C210.396 192.522 210.109 191.257 210.109 189.858L210.109 189.261C210.109 187.816 210.386 186.514 210.942 185.357C211.507 184.199 212.29 183.291 213.29 182.633C214.291 181.966 215.375 181.633 216.542 181.633C218.367 181.633 219.812 182.258 220.877 183.509C221.951 184.75 222.489 186.45 222.489 188.608L222.489 189.539L211.762 189.539L211.762 189.858C211.762 191.563 212.248 192.985 213.221 194.124C214.203 195.254 215.435 195.819 216.917 195.819C217.806 195.819 218.589 195.657 219.265 195.333C219.951 195.009 220.571 194.49 221.127 193.777L222.169 194.569C220.946 196.338 219.172 197.223 216.847 197.223ZM216.542 183.05C215.291 183.05 214.235 183.509 213.374 184.426C212.522 185.343 212.003 186.575 211.818 188.122L220.835 188.122L220.835 187.941C220.789 186.496 220.377 185.319 219.599 184.412C218.82 183.504 217.802 183.05 216.542 183.05ZM231.979 189.289C231.979 186.936 232.497 185.074 233.535 183.703C234.582 182.323 235.999 181.633 237.787 181.633C239.834 181.633 241.39 182.448 242.455 184.078L242.539 181.911L244.095 181.911L244.095 196.639C244.095 198.575 243.553 200.108 242.469 201.238C241.385 202.368 239.917 202.933 238.065 202.933C237.018 202.933 236.017 202.697 235.063 202.225C234.118 201.761 233.373 201.141 232.826 200.363L233.757 199.362C234.934 200.807 236.332 201.53 237.953 201.53C239.343 201.53 240.427 201.118 241.205 200.293C241.983 199.478 242.386 198.343 242.414 196.889L242.414 194.999C241.348 196.481 239.797 197.223 237.759 197.223C236.017 197.223 234.619 196.528 233.563 195.138C232.507 193.749 231.979 191.873 231.979 189.511L231.979 189.289ZM233.66 189.58C233.66 191.498 234.044 193.012 234.813 194.124C235.582 195.226 236.666 195.777 238.065 195.777C240.112 195.777 241.561 194.86 242.414 193.026L242.414 186.037C242.025 185.074 241.464 184.342 240.732 183.842C240.001 183.333 239.121 183.078 238.092 183.078C236.694 183.078 235.605 183.629 234.827 184.731C234.049 185.824 233.66 187.441 233.66 189.58ZM250.292 196.945L248.624 196.945L248.624 181.911L250.292 181.911L250.292 196.945ZM248.333 177.562C248.333 177.247 248.435 176.983 248.638 176.77C248.842 176.547 249.12 176.436 249.472 176.436C249.824 176.436 250.102 176.547 250.306 176.77C250.519 176.983 250.625 177.247 250.625 177.562C250.625 177.877 250.519 178.141 250.306 178.354C250.102 178.567 249.824 178.673 249.472 178.673C249.12 178.673 248.842 178.567 248.638 178.354C248.435 178.141 248.333 177.877 248.333 177.562ZM254.155 189.289C254.155 186.936 254.673 185.074 255.711 183.703C256.757 182.323 258.175 181.633 259.962 181.633C262.01 181.633 263.566 182.448 264.631 184.078L264.714 181.911L266.271 181.911L266.271 196.639C266.271 198.575 265.729 200.108 264.645 201.238C263.561 202.368 262.093 202.933 260.24 202.933C259.194 202.933 258.193 202.697 257.239 202.225C256.294 201.761 255.549 201.141 255.002 200.363L255.933 199.362C257.109 200.807 258.508 201.53 260.129 201.53C261.519 201.53 262.602 201.118 263.381 200.293C264.159 199.478 264.562 198.343 264.589 196.889L264.589 194.999C263.524 196.481 261.973 197.223 259.935 197.223C258.193 197.223 256.794 196.528 255.738 195.138C254.682 193.749 254.155 191.873 254.155 189.511L254.155 189.289ZM255.836 189.58C255.836 191.498 256.22 193.012 256.989 194.124C257.758 195.226 258.842 195.777 260.24 195.777C262.287 195.777 263.737 194.86 264.589 193.026L264.589 186.037C264.2 185.074 263.64 184.342 262.908 183.842C262.176 183.333 261.296 183.078 260.268 183.078C258.869 183.078 257.781 183.629 257.003 184.731C256.225 185.824 255.836 187.441 255.836 189.58ZM283.347 197.223C282.069 197.223 280.911 196.908 279.873 196.278C278.845 195.648 278.044 194.772 277.47 193.652C276.895 192.522 276.608 191.257 276.608 189.858L276.608 189.261C276.608 187.816 276.886 186.514 277.442 185.357C278.007 184.199 278.79 183.291 279.79 182.633C280.79 181.966 281.874 181.633 283.041 181.633C284.866 181.633 286.311 182.258 287.377 183.509C288.451 184.75 288.988 186.45 288.988 188.608L288.988 189.539L278.262 189.539L278.262 189.858C278.262 191.563 278.748 192.985 279.721 194.124C280.702 195.254 281.934 195.819 283.417 195.819C284.306 195.819 285.089 195.657 285.765 195.333C286.45 195.009 287.071 194.49 287.627 193.777L288.669 194.569C287.446 196.338 285.672 197.223 283.347 197.223ZM283.041 183.05C281.791 183.05 280.735 183.509 279.873 184.426C279.021 185.343 278.503 186.575 278.317 188.122L287.335 188.122L287.335 187.941C287.289 186.496 286.876 185.319 286.098 184.412C285.32 183.504 284.301 183.05 283.041 183.05ZM297.784 195.819C298.941 195.819 299.909 195.495 300.688 194.847C301.475 194.189 301.901 193.341 301.966 192.304L303.564 192.304C303.517 193.221 303.23 194.059 302.702 194.819C302.174 195.569 301.47 196.157 300.59 196.583C299.72 197.009 298.784 197.223 297.784 197.223C295.811 197.223 294.245 196.537 293.087 195.166C291.939 193.795 291.364 191.952 291.364 189.636L291.364 189.136C291.364 187.654 291.624 186.343 292.142 185.204C292.661 184.064 293.402 183.184 294.366 182.564C295.338 181.943 296.473 181.633 297.77 181.633C299.419 181.633 300.776 182.124 301.841 183.106C302.915 184.087 303.49 185.38 303.564 186.982L301.966 186.982C301.892 185.806 301.466 184.856 300.688 184.134C299.919 183.411 298.946 183.05 297.77 183.05C296.269 183.05 295.102 183.592 294.268 184.676C293.444 185.759 293.032 187.279 293.032 189.233L293.032 189.719C293.032 191.637 293.444 193.133 294.268 194.207C295.102 195.282 296.274 195.819 297.784 195.819ZM305.981 189.205C305.981 187.76 306.259 186.459 306.815 185.301C307.38 184.143 308.172 183.245 309.191 182.605C310.219 181.957 311.382 181.633 312.679 181.633C314.679 181.633 316.3 182.337 317.542 183.745C318.783 185.143 319.404 187.001 319.404 189.316L319.404 189.664C319.404 191.118 319.121 192.429 318.556 193.596C318 194.754 317.213 195.648 316.194 196.278C315.175 196.908 314.012 197.223 312.706 197.223C310.715 197.223 309.094 196.523 307.843 195.124C306.602 193.716 305.981 191.855 305.981 189.539L305.981 189.205ZM307.649 189.664C307.649 191.461 308.112 192.938 309.038 194.096C309.974 195.245 311.197 195.819 312.706 195.819C314.207 195.819 315.42 195.245 316.347 194.096C317.282 192.938 317.75 191.415 317.75 189.525L317.75 189.205C317.75 188.057 317.537 187.005 317.111 186.051C316.685 185.097 316.087 184.361 315.319 183.842C314.55 183.314 313.67 183.05 312.679 183.05C311.197 183.05 309.988 183.634 309.052 184.801C308.117 185.959 307.649 187.478 307.649 189.358L307.649 189.664ZM324.433 181.911L324.489 184.481C325.054 183.555 325.758 182.851 326.601 182.369C327.444 181.878 328.375 181.633 329.394 181.633C331.006 181.633 332.205 182.087 332.993 182.994C333.78 183.902 334.178 185.264 334.187 187.079L334.187 196.945L332.534 196.945L332.534 187.066C332.525 185.722 332.238 184.722 331.673 184.064C331.117 183.407 330.223 183.078 328.991 183.078C327.963 183.078 327.05 183.402 326.254 184.05C325.466 184.69 324.883 185.556 324.503 186.649L324.503 196.945L322.849 196.945L322.849 181.911L324.433 181.911ZM337.578 189.205C337.578 187.76 337.856 186.459 338.411 185.301C338.976 184.143 339.768 183.245 340.787 182.605C341.816 181.957 342.978 181.633 344.275 181.633C346.276 181.633 347.897 182.337 349.138 183.745C350.379 185.143 351 187.001 351 189.316L351 189.664C351 191.118 350.717 192.429 350.152 193.596C349.597 194.754 348.809 195.648 347.79 196.278C346.771 196.908 345.609 197.223 344.303 197.223C342.311 197.223 340.69 196.523 339.44 195.124C338.198 193.716 337.578 191.855 337.578 189.539L337.578 189.205ZM339.245 189.664C339.245 191.461 339.708 192.938 340.635 194.096C341.57 195.245 342.793 195.819 344.303 195.819C345.803 195.819 347.017 195.245 347.943 194.096C348.879 192.938 349.347 191.415 349.347 189.525L349.347 189.205C349.347 188.057 349.133 187.005 348.707 186.051C348.281 185.097 347.684 184.361 346.915 183.842C346.146 183.314 345.266 183.05 344.275 183.05C342.793 183.05 341.584 183.634 340.648 184.801C339.713 185.959 339.245 187.478 339.245 189.358L339.245 189.664ZM355.96 181.911L356.016 184.356C356.572 183.448 357.266 182.768 358.1 182.314C358.934 181.86 359.86 181.633 360.879 181.633C363.25 181.633 364.756 182.605 365.395 184.551C365.932 183.615 366.65 182.897 367.548 182.397C368.447 181.888 369.438 181.633 370.522 181.633C373.745 181.633 375.39 183.393 375.454 186.913L375.454 196.945L373.787 196.945L373.787 187.038C373.778 185.695 373.486 184.699 372.912 184.05C372.347 183.402 371.42 183.078 370.133 183.078C368.938 183.096 367.928 183.485 367.104 184.245C366.279 184.995 365.821 185.912 365.728 186.996L365.728 196.945L364.061 196.945L364.061 186.913C364.052 185.625 363.746 184.666 363.144 184.037C362.551 183.397 361.634 183.078 360.393 183.078C359.346 183.078 358.447 183.379 357.697 183.981C356.947 184.574 356.391 185.458 356.03 186.635L356.03 196.945L354.362 196.945L354.362 181.911L355.96 181.911ZM384.444 194.555L388.835 181.911L390.627 181.911L384.208 199.501L383.875 200.279C383.05 202.104 381.777 203.017 380.054 203.017C379.655 203.017 379.229 202.952 378.775 202.822L378.761 201.446L379.623 201.53C380.438 201.53 381.096 201.326 381.596 200.918C382.105 200.52 382.536 199.83 382.888 198.848L383.625 196.82L377.956 181.911L379.776 181.911L384.444 194.555Z" fill="#EA5400"/>
<path d="M474.603 113.873L474.597 113.867C472.16 111.652 470.959 108.755 470.959 105.324C470.959 101.477 472.406 98.3423 475.342 96.1248C478.283 93.8916 482.437 92.8984 487.557 92.8984C490.765 92.8984 493.95 93.19 497.109 93.773C498.534 94.0321 499.713 94.7636 500.568 95.9271C501.455 97.0214 501.892 98.3156 501.892 99.7375C501.892 101.127 501.312 102.317 500.229 103.184L500.203 103.205L500.175 103.225C499.056 104.046 497.753 104.257 496.423 103.91C493.922 103.285 491.275 102.97 488.477 102.97C486.451 102.97 485.188 103.261 484.483 103.652C484.155 103.834 483.983 104.019 483.887 104.179C483.792 104.338 483.718 104.559 483.718 104.9C483.718 105.603 483.946 106.118 484.415 106.559C484.895 107.011 485.911 107.52 487.747 107.925C493.199 109.017 497.277 110.541 499.604 112.697C502.054 114.923 503.165 118.097 503.165 121.943C503.165 125.804 501.684 128.941 498.697 131.154C495.762 133.327 491.666 134.298 486.638 134.298C483.351 134.298 480.001 133.905 476.592 133.126C475.19 132.807 474.021 132.057 473.136 130.92L473.123 130.903L473.111 130.886C472.244 129.71 471.808 128.361 471.808 126.893C471.808 125.495 472.402 124.294 473.584 123.506L473.603 123.493L473.623 123.48C474.756 122.773 476.021 122.583 477.309 122.941C480.255 123.757 483.009 124.155 485.577 124.155C487.616 124.155 488.88 123.844 489.584 123.426C490.157 123.086 490.407 122.663 490.407 121.943C490.407 121.135 490.151 120.643 489.711 120.277L489.694 120.263L489.677 120.248C489.181 119.81 488.026 119.25 485.909 118.696C480.887 117.593 477.036 116.036 474.61 113.879L474.603 113.873Z" fill="#EA5400"/>
<path d="M415.664 131.901L415.647 131.883C414.617 130.789 414.079 129.454 414.079 127.954V99.2425C414.079 97.7423 414.617 96.4075 415.647 95.3131L415.664 95.2954L415.681 95.2782C416.768 94.1907 418.114 93.6056 419.645 93.6056H420.635C422.13 93.6056 423.453 94.1406 424.512 95.1904C424.938 95.595 425.29 96.0411 425.565 96.5243C428.127 94.1692 431.037 92.8984 434.284 92.8984C436.584 92.8984 438.608 93.3295 440.22 94.3407C441.388 95.0526 442.387 96.0992 443.246 97.4077C446.13 94.4814 449.44 92.8984 453.165 92.8984C457.338 92.8984 460.708 94.0326 462.827 96.6746C464.937 99.2471 465.803 103.383 465.803 108.648V127.954C465.803 129.477 465.224 130.816 464.148 131.901C463.097 133.008 461.763 133.591 460.237 133.591H459.035C457.503 133.591 456.158 133.005 455.07 131.918C453.983 130.831 453.398 129.485 453.398 127.954V110.062C453.398 108.384 453.317 107.042 453.167 106.016C453.012 104.954 452.803 104.373 452.642 104.108C452.399 103.71 451.814 103.253 450.195 103.253C449.5 103.253 448.645 103.566 447.607 104.524C446.553 105.497 446.285 106.232 446.285 106.739V127.954C446.285 129.485 445.7 130.831 444.612 131.918C443.525 133.005 442.179 133.591 440.648 133.591H439.446C437.915 133.591 436.569 133.005 435.482 131.918L435.464 131.901L435.448 131.883C434.418 130.789 433.88 129.454 433.88 127.954V110.062C433.88 108.412 433.793 107.094 433.634 106.087C433.47 105.048 433.25 104.482 433.08 104.221L433.058 104.188L433.038 104.153C432.782 103.715 432.198 103.253 430.606 103.253C429.911 103.253 429.056 103.566 428.018 104.524C426.965 105.497 426.696 106.232 426.696 106.739V127.954C426.696 129.485 426.111 130.831 425.024 131.918C423.936 133.005 422.591 133.591 421.06 133.591H419.645C418.114 133.591 416.768 133.005 415.681 131.918L415.664 131.901Z" fill="#EA5400"/>
<path d="M394.06 98.4198C393.887 97.2267 393.334 96.1664 392.446 95.2782C391.358 94.1907 390.013 93.6056 388.482 93.6056H387.067C385.536 93.6056 384.19 94.1907 383.103 95.2782C382.015 96.3657 381.43 97.7112 381.43 99.2425V127.954C381.43 129.485 382.015 130.831 383.103 131.918C384.19 133.005 385.536 133.591 387.067 133.591H388.835C390.366 133.591 391.712 133.005 392.799 131.918C393.887 130.831 394.472 129.485 394.472 127.954V115.366C394.472 111.737 395.434 109.176 397.14 107.44C398.863 105.689 401.567 104.55 405.51 104.238L405.522 104.237L405.535 104.236C406.899 104.106 408.095 103.54 409.064 102.57C410.069 101.565 410.596 100.31 410.596 98.8889C410.596 97.4767 410.076 96.2275 409.082 95.2257C408.054 94.1383 406.729 93.6115 405.231 93.7543L405.221 93.7552L405.212 93.7562C402.374 94.0602 399.742 94.8737 397.333 96.2043C396.135 96.8428 395.042 97.5811 394.06 98.4198Z" fill="#EA5400"/>
<path fill-rule="evenodd" clip-rule="evenodd" d="M341.461 128.844L341.453 128.835C337.984 125.103 336.356 119.948 336.356 113.598C336.356 107.249 337.984 102.112 341.461 98.4236C344.99 94.6835 349.863 92.8984 355.853 92.8984C361.839 92.8984 366.691 94.6802 370.176 98.4237C373.699 102.11 375.351 107.248 375.351 113.598C375.351 119.954 373.696 125.112 370.175 128.843C366.689 132.541 361.836 134.298 355.853 134.298C349.869 134.298 345 132.541 341.469 128.852L341.461 128.844ZM360.755 105.247L360.767 105.265L360.78 105.283C361.89 106.798 362.592 109.464 362.592 113.598C362.592 117.727 361.892 120.429 360.77 121.999L360.765 122.005C359.755 123.434 358.218 124.226 355.853 124.226C353.5 124.226 351.929 123.44 350.869 122.002C349.788 120.424 349.115 117.718 349.115 113.598C349.115 109.461 349.794 106.787 350.868 105.266C351.934 103.774 353.506 102.97 355.853 102.97C358.202 102.97 359.738 103.774 360.755 105.247Z" fill="#EA5400"/>
<path d="M303.392 103.591L303.411 103.612L303.431 103.631C304.395 104.596 305.607 105.092 306.971 105.092H309.749V127.954C309.749 129.454 310.287 130.789 311.317 131.883L311.334 131.901L311.351 131.918C312.438 133.005 313.784 133.591 315.315 133.591H317.083C318.614 133.591 319.96 133.005 321.047 131.918C322.135 130.831 322.72 129.485 322.72 127.954V105.092H328.681C330.045 105.092 331.256 104.596 332.221 103.631L332.24 103.612L332.259 103.591C333.189 102.595 333.681 101.382 333.681 100.02C333.681 98.6564 333.185 97.445 332.221 96.4804C331.256 95.5157 330.045 95.02 328.681 95.02H322.72V94.0095C322.72 92.6152 322.822 91.5184 323.002 90.6902C323.184 89.8484 323.422 89.4014 323.604 89.1876C324.031 88.6958 325.07 88.1902 327.337 88.1902C327.669 88.1902 328.269 88.2285 329.181 88.3189C330.406 88.5097 331.577 88.257 332.612 87.5669L332.642 87.5469L332.671 87.5257C333.775 86.7165 334.388 85.5598 334.388 84.1798C334.388 82.7866 333.94 81.5203 333.064 80.4401C332.215 79.2844 331.05 78.5555 329.629 78.3489C328.347 78.1446 326.871 78.0478 325.216 78.0478C320.183 78.0478 316.155 79.2786 313.514 82.0838C310.886 84.8278 309.749 89.0247 309.749 94.2923V95.02H306.971C305.607 95.02 304.395 95.5158 303.431 96.4804C302.466 97.445 301.97 98.6564 301.97 100.02C301.97 101.382 302.462 102.595 303.392 103.591Z" fill="#EA5400"/>
<path d="M267.787 103.612L267.768 103.591C266.838 102.595 266.346 101.382 266.346 100.02C266.346 98.6564 266.842 97.445 267.807 96.4804C268.771 95.5157 269.983 95.02 271.347 95.02H273.771V87.2206C273.771 85.7204 274.309 84.3856 275.339 83.2912L275.356 83.2735L275.373 83.2563C276.461 82.1688 277.806 81.5837 279.338 81.5837H280.752C282.283 81.5837 283.629 82.1688 284.716 83.2563C285.804 84.3437 286.389 85.6893 286.389 87.2206V95.02H293.481C294.836 95.02 296.04 95.5091 297.001 96.4609C298.011 97.4129 298.552 98.6287 298.552 100.02C298.552 101.417 298.009 102.643 297.021 103.631C296.056 104.596 294.845 105.092 293.481 105.092H286.389V118.336C286.389 119.821 286.469 120.985 286.615 121.855C286.766 122.766 286.962 123.183 287.066 123.324C287.241 123.561 287.894 124.014 289.874 124.014C290.985 124.014 291.726 123.966 292.156 123.894L292.208 123.886L292.26 123.881C293.563 123.75 294.791 124.047 295.845 124.82C296.975 125.649 297.562 126.842 297.562 128.237C297.562 129.673 297.061 130.973 296.132 132.09C295.215 133.202 294.006 133.871 292.572 134.008L292.566 134.008C290.481 134.198 288.866 134.298 287.753 134.298C283.036 134.298 279.27 133.315 276.972 130.899L276.965 130.892L276.958 130.885C274.687 128.439 273.771 124.393 273.771 119.255V105.092H271.347C269.983 105.092 268.771 104.596 267.807 103.631L267.787 103.612Z" fill="#EA5400"/>
<path fill-rule="evenodd" clip-rule="evenodd" d="M230.424 130.703L230.437 130.716L230.449 130.729C232.897 133.121 235.975 134.298 239.563 134.298C243.907 134.298 247.589 132.96 250.52 130.288C250.809 130.908 251.211 131.477 251.722 131.989L251.74 132.006L251.757 132.023C252.866 133.066 254.23 133.591 255.757 133.591H256.535C258.062 133.591 259.396 133.008 260.446 131.901C261.523 130.817 262.102 129.477 262.102 127.954V109.143C262.102 103.561 260.876 99.191 257.965 96.5649C255.099 93.9797 250.359 92.8984 244.231 92.8984C240.946 92.8984 237.466 93.314 233.797 94.1328C232.355 94.4036 231.172 95.1771 230.292 96.3636C229.419 97.493 228.976 98.8014 228.976 100.233C228.976 101.622 229.556 102.812 230.64 103.679L230.666 103.7L230.693 103.72C231.793 104.526 233.072 104.761 234.384 104.403C238.265 103.434 241.467 102.97 244.018 102.97C246.583 102.97 247.91 103.426 248.485 103.923L248.501 103.937L248.517 103.951C248.968 104.319 249.416 105.127 249.477 106.83H247.554C240.961 106.83 235.752 107.975 232.193 110.525L232.183 110.531C228.625 113.119 226.855 116.801 226.855 121.377C226.855 125.086 228.018 128.242 230.424 130.703ZM240.812 117.229C239.628 117.957 239.048 118.979 239.048 120.528C239.048 121.709 239.368 122.523 239.894 123.115C240.467 123.711 241.165 124.014 242.109 124.014C244.436 124.014 246.169 123.315 247.471 122.017C248.76 120.687 249.484 118.818 249.484 116.215V115.911H247.554C244.296 115.911 242.123 116.422 240.812 117.229Z" fill="#EA5400"/>
<path d="M210.578 133.591C209.047 133.591 207.701 133.005 206.614 131.918C205.526 130.831 204.941 129.485 204.941 127.954V84.2568C204.941 82.7255 205.526 81.3799 206.614 80.2925C207.701 79.205 209.047 78.6199 210.578 78.6199H212.417C213.948 78.6199 215.294 79.205 216.381 80.2925C217.468 81.3799 218.054 82.7255 218.054 84.2568V127.954C218.054 129.485 217.468 130.831 216.381 131.918C215.293 133.005 213.948 133.591 212.417 133.591H210.578Z" fill="#EA5400"/>
<path fill-rule="evenodd" clip-rule="evenodd" d="M160.689 131.883L160.706 131.901L160.723 131.918C161.811 133.005 163.156 133.591 164.688 133.591H166.455C167.987 133.591 169.332 133.005 170.42 131.918C171.507 130.831 172.092 129.485 172.092 127.954L172.092 115.352C174.135 115.488 175.842 115.558 177.204 115.558C184.108 115.558 189.6 114.006 193.401 110.63C197.282 107.225 199.106 102.271 199.106 96.0603C199.106 90.3447 197.188 85.7828 193.195 82.6392C189.254 79.4884 183.526 78.0478 176.285 78.0478C172.509 78.0478 168.596 78.2389 164.545 78.6199C162.977 78.7528 161.648 79.4614 160.63 80.6702C159.642 81.8445 159.121 83.2213 159.121 84.7455L159.121 127.954C159.121 129.454 159.659 130.789 160.689 131.883ZM172.092 89.207L172.092 104.611C173.526 104.77 174.924 104.85 176.285 104.85C179.903 104.85 182.374 104.064 183.955 102.747C185.55 101.41 186.418 99.4954 186.418 96.7674C186.418 93.9859 185.568 92.1546 184.085 90.9668C182.535 89.7244 180.026 88.9681 176.285 88.9681C174.924 88.9681 173.526 89.0474 172.092 89.207Z" fill="#EA5400"/>
<path fill-rule="evenodd" clip-rule="evenodd" d="M162.651 49.0818L162.645 49.0752C158.106 44.0272 155.939 37.0916 155.939 28.4836C155.939 19.8755 158.106 12.9399 162.645 7.89192L162.651 7.88528C167.245 2.83124 173.456 0.358608 181.094 0.358608C188.729 0.358608 194.92 2.8302 199.469 7.88836C204.056 12.9359 206.249 19.8729 206.249 28.4836C206.249 37.0942 204.056 44.0313 199.469 49.0788C194.92 54.137 188.729 56.6085 181.094 56.6085C173.456 56.6085 167.245 54.1359 162.651 49.0818ZM181.094 11.7032C185.165 11.7032 187.994 13.0686 189.874 15.6413C191.823 18.3078 192.924 22.5028 192.924 28.4836C192.924 34.4643 191.823 38.6593 189.874 41.3258C187.994 43.8985 185.165 45.264 181.094 45.264C177.023 45.264 174.193 43.8985 172.313 41.3258C170.365 38.6593 169.264 34.4643 169.264 28.4836C169.264 22.5028 170.365 18.3078 172.313 15.6413C174.193 13.0686 177.023 11.7032 181.094 11.7032Z" fill="#EA5400"/>
<path fill-rule="evenodd" clip-rule="evenodd" d="M226.706 16.5652C225.455 17.1561 224.237 17.9872 223.051 19.0354C222.77 18.5016 222.397 18.0113 221.933 17.5718C220.834 16.481 219.466 15.9164 217.916 15.9164H217.067C215.536 15.9164 214.19 16.5015 213.103 17.589C212.015 18.6764 211.43 20.022 211.43 21.5533V65.8222C211.43 67.3535 212.015 68.6991 213.103 69.7865C214.19 70.874 215.536 71.4591 217.067 71.4591H218.481C220.008 71.4591 221.342 70.8763 222.392 69.7694C223.468 68.6849 224.048 67.3455 224.048 65.8222V53.7783C226.789 55.6553 229.895 56.6085 233.332 56.6085C238.035 56.6085 241.952 54.6743 244.978 50.9184C248.056 47.1088 249.506 42.0461 249.506 35.9089C249.506 29.6208 248.144 24.5233 245.197 20.8371C242.239 17.0893 238.231 15.2092 233.332 15.2092C230.88 15.2092 228.657 15.6438 226.706 16.5652ZM223.977 31.1001V40.7176C223.977 42.0791 224.53 43.3388 225.849 44.5439C227.208 45.7448 228.738 46.3247 230.503 46.3247C232.486 46.3247 233.981 45.5593 235.141 43.9507C236.32 42.3149 237.03 39.7143 237.03 35.9089C237.03 32.0323 236.365 29.4075 235.272 27.7923C234.255 26.2891 232.756 25.493 230.503 25.493C228.738 25.493 227.208 26.073 225.849 27.2738C224.53 28.479 223.977 29.7386 223.977 31.1001Z" fill="#EA5400"/>
<path d="M306.061 19.0834C309.108 16.5301 312.609 15.2092 316.529 15.2092C321.109 15.2092 324.773 16.5252 327.115 19.485C329.452 22.333 330.44 26.8336 330.44 32.5852V50.2644C330.44 51.7957 329.855 53.1413 328.768 54.2288C327.68 55.3162 326.335 55.9014 324.803 55.9014H323.601C322.07 55.9014 320.724 55.3162 319.637 54.2288L319.62 54.2116L319.603 54.1938C318.573 53.0994 318.035 51.7647 318.035 50.2644V33.2923C318.035 31.5868 317.921 30.2128 317.711 29.1462C317.499 28.0627 317.209 27.4036 316.936 27.0351L316.916 27.0085L316.898 26.981C316.426 26.2856 315.442 25.7051 313.347 25.7051C311.926 25.7051 310.524 26.2943 309.108 27.7098C307.684 29.1345 307.104 30.5145 307.104 31.878V50.2644C307.104 51.7957 306.519 53.1413 305.431 54.2288C304.344 55.3162 302.998 55.9014 301.467 55.9014H300.052C298.521 55.9014 297.176 55.3162 296.088 54.2288C295.001 53.1413 294.415 51.7957 294.415 50.2644V21.5533C294.415 20.022 295.001 18.6764 296.088 17.589C297.176 16.5015 298.521 15.9164 300.052 15.9164H300.972C302.516 15.9164 303.874 16.478 304.936 17.5886C305.405 18.037 305.781 18.5378 306.061 19.0834Z" fill="#EA5400"/>
<path fill-rule="evenodd" clip-rule="evenodd" d="M258.773 51.3302L258.782 51.3383L258.79 51.3463C262.526 54.9242 267.74 56.6028 274.191 56.6028C277.12 56.6028 279.961 56.3106 282.711 55.7231C284.108 55.4631 285.283 54.7677 286.144 53.6434C287.023 52.5114 287.468 51.1991 287.468 49.7631C287.468 48.3331 286.827 47.1425 285.661 46.3324C284.561 45.5338 283.283 45.3062 281.972 45.6693C279.482 46.3481 277.27 46.673 275.323 46.673C272.133 46.673 269.954 46.0071 268.553 44.9102C267.424 43.9562 266.585 42.4471 266.182 40.1893H284.237C285.763 40.1893 287.133 39.6668 288.274 38.6521C289.478 37.5819 290.077 36.1798 290.015 34.5717C289.866 28.4312 288.4 23.5399 285.356 20.1754C282.277 16.7724 277.822 15.1903 272.281 15.1903C266.348 15.1903 261.574 16.9212 258.22 20.5945C254.885 24.2471 253.343 29.4353 253.343 35.8966C253.343 42.4428 255.07 47.6799 258.773 51.3302ZM266.194 30.8256C266.564 28.7091 267.212 27.3445 267.988 26.54C268.93 25.5636 270.33 24.9786 272.422 24.9786C274.3 24.9786 275.501 25.5534 276.296 26.5176C277.022 27.3979 277.559 28.7799 277.754 30.8256H266.194Z" fill="#EA5400"/>
<path fill-rule="evenodd" clip-rule="evenodd" d="M32.8048 128.467C46.1688 128.467 57.0025 117.633 57.0025 104.269C57.0025 90.9052 46.1688 80.0715 32.8048 80.0715C19.4407 80.0715 8.60696 90.9052 8.60696 104.269C8.60696 117.633 19.4407 128.467 32.8048 128.467ZM32.8048 136.315C50.5031 136.315 64.8505 121.968 64.8505 104.269C64.8505 86.5709 50.5031 72.2235 32.8048 72.2235C15.1064 72.2235 0.759033 86.5709 0.759033 104.269C0.759033 121.968 15.1064 136.315 32.8048 136.315Z" fill="#EA5400"/>
<path d="M7.98631 124.543C13.8629 117.358 22.7983 112.771 32.8049 112.771C42.8115 112.771 51.7469 117.358 57.6235 124.543C55.9559 126.582 54.0419 128.412 51.9271 129.987C47.5002 124.287 40.5809 120.619 32.8049 120.619C25.029 120.619 18.1097 124.287 13.6827 129.987C11.5679 128.412 9.65394 126.582 7.98631 124.543Z" fill="#EA5400"/>
<path fill-rule="evenodd" clip-rule="evenodd" d="M32.8048 104.959C36.0751 104.959 38.7261 102.308 38.7261 99.0373C38.7261 95.767 36.0751 93.116 32.8048 93.116C29.5346 93.116 26.8835 95.767 26.8835 99.0373C26.8835 102.308 29.5346 104.959 32.8048 104.959ZM32.8048 110.155C38.9451 110.155 43.9227 105.178 43.9227 99.0373C43.9227 92.897 38.9451 87.9194 32.8048 87.9194C26.6646 87.9194 21.6869 92.897 21.6869 99.0373C21.6869 105.178 26.6646 110.155 32.8048 110.155Z" fill="#EA5400"/>
<path fill-rule="evenodd" clip-rule="evenodd" d="M102.586 90.5851C94.9329 90.5851 88.7286 96.7894 88.7286 104.443C88.7286 112.096 94.9329 118.3 102.586 118.3C110.24 118.3 116.444 112.096 116.444 104.443C116.444 96.7894 110.24 90.5851 102.586 90.5851ZM102.586 80.1919C89.1929 80.1919 78.3354 91.0494 78.3354 104.443C78.3354 117.836 89.1929 128.694 102.586 128.694C115.98 128.694 126.837 117.836 126.837 104.443C126.837 91.0494 115.98 80.1919 102.586 80.1919Z" fill="#EA5400"/>
<path fill-rule="evenodd" clip-rule="evenodd" d="M61.0181 99.2461L88.7286 99.2462V109.639H61.0181V99.2461Z" fill="#EA5400"/>
<path fill-rule="evenodd" clip-rule="evenodd" d="M116.475 99.5661H144.186V109.959L116.475 109.959V99.5661Z" fill="#EA5400"/>
<path fill-rule="evenodd" clip-rule="evenodd" d="M102.586 15.8836C94.9329 15.8836 88.7286 22.0878 88.7286 29.7412C88.7286 37.3945 94.9329 43.5988 102.586 43.5988C110.24 43.5988 116.444 37.3945 116.444 29.7412C116.444 22.0878 110.24 15.8836 102.586 15.8836ZM102.586 5.49036C89.1929 5.49036 78.3354 16.3478 78.3354 29.7412C78.3354 43.1345 89.1929 53.992 102.586 53.992C115.98 53.992 126.837 43.1345 126.837 29.7412C126.837 16.3478 115.98 5.49036 102.586 5.49036Z" fill="#EA5400"/>
<path fill-rule="evenodd" clip-rule="evenodd" d="M61.0181 24.5446L88.7286 24.5446V34.9378L61.0181 34.9378V24.5446Z" fill="#EA5400"/>
<path fill-rule="evenodd" clip-rule="evenodd" d="M116.475 24.8645L144.186 24.8645V35.2577L116.475 35.2577V24.8645Z" fill="#EA5400"/>
<path fill-rule="evenodd" clip-rule="evenodd" d="M96.3773 52.3033V49.3153H109.325V52.3033H96.3773ZM96.3773 64.2555V58.2794H109.325V64.2555H96.3773ZM96.3773 76.2077V70.2316H109.325V76.2077H96.3773ZM96.3773 85.1719V82.1838H109.325V85.1719H96.3773Z" fill="#EA5400"/>
</svg>
