<?xml version="1.0" standalone="no"?>
<!DOCTYPE svg PUBLIC "-//W3C//DTD SVG 20010904//EN"
 "http://www.w3.org/TR/2001/REC-SVG-20010904/DTD/svg10.dtd">
<svg version="1.0" xmlns="http://www.w3.org/2000/svg"
 width="822.000000pt" height="822.000000pt" viewBox="0 0 822.000000 822.000000"
 preserveAspectRatio="xMidYMid meet">
<metadata>
Created by potrace 1.11, written by Peter Selinger 2001-2013
</metadata>
<g transform="translate(0.000000,822.000000) scale(0.100000,-0.100000)"
fill="#000000" stroke="none">
<path d="M5640 7885 c-199 -30 -364 -92 -540 -203 -136 -86 -284 -222 -360
-332 -13 -19 -27 -37 -31 -40 -13 -9 -96 -155 -126 -221 -34 -74 -65 -160 -87
-239 l-15 -55 -508 0 -508 0 -3 -301 -2 -301 511 -1 c281 0 512 -2 514 -4 3
-2 7 -22 11 -44 7 -46 66 -208 101 -277 158 -314 433 -568 741 -683 37 -14 69
-29 72 -33 3 -4 37 -12 75 -19 39 -7 104 -19 145 -27 73 -14 353 -15 425 -2
509 93 907 424 1085 902 12 33 26 70 31 83 5 13 9 31 9 42 0 45 -3 45 533 44
l507 -1 0 301 0 301 -506 0 c-325 0 -508 4 -514 10 -4 6 -10 26 -14 46 -12 68
-58 195 -107 294 -79 160 -208 327 -345 444 -167 144 -404 259 -629 306 -104
22 -353 27 -465 10z m360 -604 c262 -60 468 -233 569 -476 141 -337 35 -732
-252 -951 -148 -112 -309 -164 -492 -159 -60 1 -119 5 -130 8 -120 30 -183 55
-260 101 -70 43 -81 52 -160 131 -147 148 -226 343 -227 560 0 389 276 723
654 789 82 14 230 13 298 -3z"/>
<path d="M5409 4781 c-1 -44 -1 -238 0 -268 l1 -21 323 1 322 2 0 160 0 160
-322 1 -323 1 -1 -36z"/>
<path d="M5409 4143 c-1 -43 -1 -266 0 -284 1 -13 38 -15 324 -15 l322 1 1
163 0 162 -323 0 -323 0 -1 -27z"/>
<path d="M1717 4004 c-1 -1 -33 -5 -72 -8 -38 -4 -77 -9 -85 -11 -8 -2 -31 -6
-50 -9 -71 -11 -97 -17 -180 -42 -435 -129 -782 -385 -1033 -764 -121 -182
-228 -446 -262 -645 -12 -71 -15 -85 -21 -112 -13 -61 -12 -399 2 -483 7 -47
16 -101 19 -120 41 -251 202 -592 384 -812 233 -280 562 -496 911 -597 181
-52 276 -65 485 -65 211 -1 268 4 410 35 684 148 1220 664 1395 1342 16 65 30
126 30 136 0 16 25 17 413 16 226 -1 415 -3 418 -4 4 0 10 -16 13 -34 13 -68
59 -195 107 -290 81 -163 191 -307 322 -422 37 -33 74 -65 80 -70 7 -6 32 -25
57 -42 172 -117 378 -197 580 -226 91 -14 336 -15 390 -3 14 3 45 9 70 12 67
9 265 76 350 119 133 66 241 146 360 265 172 171 274 336 349 565 l37 112 484
1 c267 0 497 1 513 1 l27 1 0 300 0 300 -510 0 -510 0 -6 28 c-3 15 -19 70
-35 122 -90 289 -282 550 -533 724 -80 56 -237 144 -270 151 -6 1 -18 5 -26 8
-208 88 -540 115 -770 61 -36 -8 -83 -17 -105 -21 -22 -3 -42 -9 -45 -13 -3
-3 -27 -14 -55 -24 -168 -63 -350 -181 -485 -316 -117 -117 -206 -241 -275
-385 -50 -103 -105 -260 -105 -298 0 -16 -31 -17 -419 -17 l-419 0 -12 68
c-36 189 -157 489 -246 609 -13 17 -24 34 -24 38 0 3 -28 43 -62 88 -210 275
-502 495 -813 612 -112 42 -292 90 -375 100 -30 3 -68 9 -85 12 -29 5 -313 12
-318 7z m328 -464 c44 -7 112 -21 150 -32 39 -11 75 -21 80 -22 6 -2 23 -8 38
-14 16 -7 30 -12 33 -12 2 0 43 -18 90 -40 490 -232 801 -736 789 -1280 -1
-63 -5 -128 -8 -145 -4 -16 -9 -47 -12 -68 -15 -108 -60 -246 -119 -367 -42
-85 -129 -225 -148 -236 -5 -3 -19 3 -31 13 -50 44 -219 139 -347 196 -91 40
-271 96 -367 113 -13 2 -35 6 -50 9 -85 15 -165 20 -308 20 -138 -1 -289 -11
-305 -20 -3 -2 -25 -6 -49 -10 -195 -29 -509 -163 -698 -298 -24 -17 -45 -28
-46 -26 -48 57 -133 209 -198 354 -12 28 -56 186 -63 226 -3 19 -9 48 -12 64
-10 52 -13 318 -3 375 5 30 11 71 14 90 16 104 79 279 138 390 82 151 229 328
357 431 202 162 476 274 725 296 33 3 61 6 63 8 7 6 216 -5 287 -15z m3974
-591 c283 -66 514 -293 587 -579 21 -84 23 -100 24 -195 2 -224 -77 -419 -232
-575 -211 -213 -524 -289 -803 -195 -269 90 -472 317 -530 595 -15 73 -21 235
-10 295 51 275 217 491 467 608 139 65 336 83 497 46z m-3999 -1731 c14 -3 45
-8 70 -12 131 -21 313 -87 433 -158 82 -47 82 -46 -45 -112 -107 -55 -252
-107 -373 -132 -125 -26 -404 -26 -525 -1 -164 35 -371 116 -473 185 l-27 18
82 47 c141 78 335 144 478 162 30 4 57 8 59 10 4 5 290 -2 321 -7z"/>
<path d="M1778 3104 c-2 -1 -21 -5 -42 -8 -96 -15 -166 -43 -251 -100 -122
-81 -213 -203 -257 -346 -30 -98 -32 -264 -4 -355 65 -208 224 -372 423 -436
88 -28 242 -34 333 -13 292 67 501 336 495 635 -3 100 -19 168 -65 264 -104
216 -314 352 -557 360 -40 1 -74 1 -75 -1z m183 -320 c82 -29 171 -122 198
-206 53 -169 -21 -343 -178 -417 -73 -34 -201 -37 -271 -6 -223 97 -279 378
-110 551 91 94 231 124 361 78z"/>
</g>
</svg>
